<svg width="361" height="74" viewBox="0 0 361 74" fill="none" xmlns="http://www.w3.org/2000/svg">
<rect width="361" height="74" fill="#1E1E1E"/>
<circle cx="37" cy="37" r="37" fill="url(#paint0_radial_1_2)"/>
<circle cx="37" cy="37" r="30" fill="#09090A"/>
<circle cx="36.5" cy="36.5" r="16.5" fill="#7774F6"/>
<circle cx="37" cy="37" r="9" fill="black"/>
<circle cx="53" cy="20" r="4" fill="#7774F6"/>
<path d="M91.8047 22.9922C92.638 23.0182 93.3672 23.0312 93.9922 23.0312C94.6172 23.0052 95.125 22.9922 95.5156 22.9922H96.6484C96.9349 22.9661 97.2865 22.9531 97.7031 22.9531C98.0677 22.9531 98.5104 22.9531 99.0312 22.9531C99.5521 22.9531 100.151 22.9661 100.828 22.9922C101.036 23.7214 101.271 24.4375 101.531 25.1406C101.818 25.8177 102.065 26.4297 102.273 26.9766C102.534 27.6276 102.794 28.2396 103.055 28.8125C103.315 29.3854 103.628 30.0755 103.992 30.8828C104.305 31.5599 104.682 32.3932 105.125 33.3828C105.568 34.3464 106.089 35.4531 106.688 36.7031C106.974 35.8958 107.234 35.1536 107.469 34.4766C107.729 33.7995 107.951 33.2135 108.133 32.7188C108.341 32.1458 108.51 31.625 108.641 31.1562C108.771 30.6875 108.914 30.1146 109.07 29.4375C109.201 28.8646 109.344 28.1745 109.5 27.3672C109.682 26.5599 109.865 25.6224 110.047 24.5547C110.802 24.5547 111.479 24.5547 112.078 24.5547C112.677 24.5547 113.198 24.5417 113.641 24.5156C114.135 24.5156 114.578 24.5026 114.969 24.4766C115.385 24.4766 115.945 24.4505 116.648 24.3984C117.247 24.3464 118.042 24.3073 119.031 24.2812C120.047 24.2292 121.297 24.1641 122.781 24.0859C122.234 24.4766 121.792 24.8672 121.453 25.2578C121.141 25.6224 120.893 25.9479 120.711 26.2344C120.503 26.5729 120.372 26.8984 120.32 27.2109C120.268 27.4714 120.216 28.0703 120.164 29.0078C120.138 29.9453 120.099 31.0651 120.047 32.3672C120.021 33.6432 119.995 35.0104 119.969 36.4688C119.969 37.9271 119.982 39.3073 120.008 40.6094C120.034 41.9115 120.073 43.0443 120.125 44.0078C120.203 44.9453 120.307 45.5443 120.438 45.8047C120.62 46.1172 120.867 46.4818 121.18 46.8984C121.466 47.263 121.831 47.6797 122.273 48.1484C122.742 48.6172 123.354 49.138 124.109 49.7109C122.911 49.763 121.909 49.8021 121.102 49.8281C120.32 49.8542 119.669 49.8802 119.148 49.9062C118.549 49.9323 118.068 49.9453 117.703 49.9453C117.312 49.9453 116.779 49.9583 116.102 49.9844C115.503 50.0104 114.708 50.0495 113.719 50.1016C112.729 50.1276 111.453 50.1797 109.891 50.2578C110.255 49.8411 110.594 49.4245 110.906 49.0078C111.219 48.5911 111.479 48.2135 111.688 47.875C111.948 47.4844 112.169 47.1068 112.352 46.7422C112.534 46.2474 112.677 45.349 112.781 44.0469C112.885 42.9271 112.964 41.3255 113.016 39.2422C113.068 37.1328 113.068 34.3073 113.016 30.7656C112.521 31.5729 112.078 32.3802 111.688 33.1875C111.323 33.9688 110.997 34.6849 110.711 35.3359C110.398 36.0911 110.112 36.8203 109.852 37.5234C109.591 38.2526 109.318 39.0599 109.031 39.9453C108.771 40.7005 108.458 41.599 108.094 42.6406C107.755 43.6823 107.365 44.8281 106.922 46.0781L105.438 46.1562C105.229 45.1146 105.021 44.1771 104.812 43.3438C104.604 42.4844 104.396 41.7552 104.188 41.1562C103.953 40.4531 103.719 39.8281 103.484 39.2812C103.224 38.7344 102.938 38.1224 102.625 37.4453C102.339 36.8724 101.987 36.1953 101.57 35.4141C101.18 34.6328 100.724 33.7604 100.203 32.7969C99.9427 35.4531 99.7865 37.6146 99.7344 39.2812C99.6823 40.9219 99.6823 42.1979 99.7344 43.1094C99.7865 44.2031 99.8646 44.9974 99.9688 45.4922C100.125 45.9349 100.372 46.4297 100.711 46.9766C100.997 47.4453 101.388 48.0052 101.883 48.6562C102.404 49.2812 103.068 49.9844 103.875 50.7656C103.302 50.7656 102.703 50.7656 102.078 50.7656C101.453 50.7656 100.88 50.7786 100.359 50.8047C99.7344 50.8307 99.1224 50.8438 98.5234 50.8438C97.8984 50.8698 97.1693 50.9089 96.3359 50.9609C95.6068 51.013 94.7344 51.0651 93.7188 51.1172C92.7031 51.1693 91.5312 51.2604 90.2031 51.3906C90.776 51.026 91.2448 50.6745 91.6094 50.3359C91.974 49.9714 92.2604 49.6458 92.4688 49.3594C92.7292 49.0208 92.9245 48.6823 93.0547 48.3438C93.1328 48.1354 93.1979 47.6797 93.25 46.9766C93.3281 46.2734 93.3932 45.4141 93.4453 44.3984C93.5234 43.3828 93.5755 42.25 93.6016 41C93.6536 39.75 93.6927 38.487 93.7188 37.2109C93.7708 35.9089 93.8099 34.6458 93.8359 33.4219C93.862 32.1719 93.875 31.0521 93.875 30.0625C93.901 29.0469 93.9141 28.2005 93.9141 27.5234C93.9141 26.8464 93.9141 26.4167 93.9141 26.2344C93.8359 25.8438 93.7188 25.4531 93.5625 25.0625C93.4323 24.724 93.224 24.3724 92.9375 24.0078C92.651 23.6432 92.2734 23.3047 91.8047 22.9922ZM134.188 33.5C134.865 33.5 135.568 33.6302 136.297 33.8906C137.026 34.125 137.729 34.4375 138.406 34.8281C139.083 35.1927 139.695 35.5964 140.242 36.0391C140.815 36.4557 141.284 36.8594 141.648 37.25C142.299 37.9531 142.742 38.9036 142.977 40.1016C143.237 41.2734 143.289 42.4844 143.133 43.7344C142.977 44.9583 142.612 46.1172 142.039 47.2109C141.466 48.3047 140.672 49.112 139.656 49.6328C138.927 49.9974 138.211 50.2839 137.508 50.4922C136.805 50.7005 136.128 50.8568 135.477 50.9609C134.826 51.0651 134.214 51.1172 133.641 51.1172C133.068 51.1172 132.573 51.1042 132.156 51.0781C131.375 51.026 130.555 50.7526 129.695 50.2578C128.862 49.763 128.068 49.151 127.312 48.4219C126.583 47.6927 125.958 46.8984 125.438 46.0391C124.917 45.1536 124.604 44.3203 124.5 43.5391C124.344 42.4714 124.318 41.3516 124.422 40.1797C124.526 39.0078 124.904 37.9271 125.555 36.9375C126.232 35.9479 127.247 35.1276 128.602 34.4766C129.982 33.8255 131.844 33.5 134.188 33.5ZM132.898 48.6562C133.185 48.7083 133.576 48.6432 134.07 48.4609C134.565 48.2526 135.047 47.9271 135.516 47.4844C136.01 47.0417 136.44 46.4818 136.805 45.8047C137.195 45.1016 137.43 44.2552 137.508 43.2656C137.586 42.3021 137.586 41.4167 137.508 40.6094C137.456 39.8021 137.339 39.099 137.156 38.5C136.974 37.875 136.766 37.3672 136.531 36.9766C136.297 36.5859 136.049 36.3125 135.789 36.1562C135.346 35.9219 134.812 35.7396 134.188 35.6094C133.562 35.4531 133.029 35.4792 132.586 35.6875C132.378 35.7917 132.117 36.013 131.805 36.3516C131.492 36.6901 131.18 37.1198 130.867 37.6406C130.555 38.1354 130.268 38.7083 130.008 39.3594C129.773 40.0104 129.604 40.6875 129.5 41.3906C129.396 42.0938 129.37 42.849 129.422 43.6562C129.5 44.4635 129.669 45.2318 129.93 45.9609C130.19 46.6641 130.555 47.276 131.023 47.7969C131.518 48.2917 132.143 48.5781 132.898 48.6562ZM144.812 32.4844C145.411 32.4323 145.919 32.3802 146.336 32.3281C146.779 32.276 147.143 32.224 147.43 32.1719C147.768 32.1198 148.055 32.0677 148.289 32.0156C148.523 31.9896 148.784 31.9375 149.07 31.8594C149.331 31.8073 149.617 31.7422 149.93 31.6641C150.268 31.5599 150.633 31.4427 151.023 31.3125L150.789 36.2734C151.362 35.362 152.026 34.6719 152.781 34.2031C153.536 33.7083 154.253 33.3438 154.93 33.1094C155.737 32.8229 156.544 32.6536 157.352 32.6016C158.185 32.6276 158.953 32.7578 159.656 32.9922C160.255 33.2005 160.854 33.526 161.453 33.9688C162.078 34.4115 162.56 35.0625 162.898 35.9219C163.784 35.0104 164.656 34.3073 165.516 33.8125C166.401 33.2917 167.182 32.901 167.859 32.6406C168.667 32.3542 169.422 32.1849 170.125 32.1328C171.062 32.1068 171.922 32.263 172.703 32.6016C173.51 32.9401 174.214 33.3698 174.812 33.8906C175.411 34.3854 175.893 34.9193 176.258 35.4922C176.622 36.0391 176.831 36.5208 176.883 36.9375C176.961 37.5104 176.922 38.2526 176.766 39.1641C176.609 40.0495 176.427 40.9609 176.219 41.8984C176.01 42.8099 175.815 43.6562 175.633 44.4375C175.477 45.1927 175.411 45.7266 175.438 46.0391C175.516 46.2995 175.698 46.612 175.984 46.9766C176.245 47.2891 176.622 47.6797 177.117 48.1484C177.638 48.5911 178.38 49.112 179.344 49.7109C178.51 49.6849 177.768 49.6589 177.117 49.6328C176.492 49.6068 175.958 49.5677 175.516 49.5156C174.995 49.4635 174.539 49.4245 174.148 49.3984C173.836 49.3984 173.458 49.3724 173.016 49.3203C172.651 49.2943 172.169 49.2552 171.57 49.2031C170.997 49.151 170.333 49.099 169.578 49.0469C169.865 48.9688 170.099 48.8255 170.281 48.6172C170.464 48.3828 170.62 48.1615 170.75 47.9531C170.88 47.6927 170.984 47.4062 171.062 47.0938C171.115 46.8333 171.167 46.4167 171.219 45.8438C171.271 45.2708 171.31 44.6198 171.336 43.8906C171.388 43.1615 171.414 42.3932 171.414 41.5859C171.44 40.7786 171.44 40.0104 171.414 39.2812C171.388 38.5521 171.336 37.888 171.258 37.2891C171.18 36.6901 171.076 36.2344 170.945 35.9219C170.841 35.6875 170.659 35.5052 170.398 35.375C170.138 35.2188 169.839 35.1276 169.5 35.1016C169.161 35.0495 168.823 35.0625 168.484 35.1406C168.146 35.1927 167.846 35.2969 167.586 35.4531C167.352 35.6354 167.039 35.8828 166.648 36.1953C166.31 36.4818 165.867 36.8724 165.32 37.3672C164.773 37.862 164.083 38.487 163.25 39.2422C163.172 40.8828 163.107 42.2109 163.055 43.2266C163.029 44.2161 163.003 44.9714 162.977 45.4922C162.951 46.1172 162.938 46.5469 162.938 46.7812C162.911 46.9896 162.924 47.1849 162.977 47.3672C163.029 47.7578 163.185 48.1224 163.445 48.4609C163.133 48.3828 162.794 48.3307 162.43 48.3047C162.091 48.2786 161.779 48.2526 161.492 48.2266C161.154 48.2005 160.815 48.1875 160.477 48.1875C160.19 48.1875 159.878 48.2005 159.539 48.2266C159.253 48.2526 158.901 48.2917 158.484 48.3438C158.068 48.3698 157.612 48.4089 157.117 48.4609C157.326 48.3307 157.495 48.1745 157.625 47.9922C157.755 47.8099 157.859 47.6406 157.938 47.4844C158.042 47.3021 158.12 47.1328 158.172 46.9766C158.198 46.8203 158.25 46.4427 158.328 45.8438C158.406 45.2188 158.458 44.4896 158.484 43.6562C158.51 42.8229 158.51 41.9505 158.484 41.0391C158.458 40.1016 158.367 39.2552 158.211 38.5C158.055 37.7188 157.807 37.0807 157.469 36.5859C157.156 36.0911 156.74 35.8698 156.219 35.9219C155.594 35.974 154.956 36.1302 154.305 36.3906C153.758 36.599 153.172 36.9115 152.547 37.3281C151.922 37.7448 151.336 38.3047 150.789 39.0078C150.685 40.9609 150.62 42.5104 150.594 43.6562C150.594 44.8021 150.607 45.6745 150.633 46.2734C150.659 46.9766 150.685 47.4583 150.711 47.7188C150.737 47.901 150.802 48.0833 150.906 48.2656C150.984 48.4219 151.076 48.6042 151.18 48.8125C151.31 49.0208 151.453 49.2161 151.609 49.3984L145.398 49.0859C145.607 48.9818 145.789 48.8516 145.945 48.6953C146.102 48.513 146.232 48.3307 146.336 48.1484C146.44 47.9401 146.544 47.7318 146.648 47.5234C146.727 47.3411 146.792 46.9115 146.844 46.2344C146.922 45.5573 146.987 44.763 147.039 43.8516C147.091 42.9141 147.13 41.9375 147.156 40.9219C147.208 39.8802 147.234 38.9167 147.234 38.0312C147.26 37.1198 147.273 36.3516 147.273 35.7266C147.273 35.0755 147.26 34.6849 147.234 34.5547C147.156 34.2943 147.013 34.0208 146.805 33.7344C146.622 33.526 146.375 33.3047 146.062 33.0703C145.75 32.8099 145.333 32.6146 144.812 32.4844ZM189.695 44.7109C190.424 44.7109 191.102 44.6328 191.727 44.4766C192.247 44.3464 192.742 44.138 193.211 43.8516C193.706 43.5391 194.031 43.0833 194.188 42.4844C194.708 42.5885 195.151 42.6797 195.516 42.7578C195.88 42.8099 196.193 42.862 196.453 42.9141C196.74 42.9922 196.987 43.0443 197.195 43.0703C197.404 43.1224 197.651 43.1745 197.938 43.2266C198.198 43.2786 198.51 43.3438 198.875 43.4219C199.266 43.474 199.721 43.5521 200.242 43.6562C199.852 43.6042 199.448 43.6432 199.031 43.7734C198.641 43.9036 198.263 44.0469 197.898 44.2031C197.482 44.3854 197.091 44.6068 196.727 44.8672C196.492 45.0234 196.219 45.2578 195.906 45.5703C195.62 45.8828 195.203 46.1823 194.656 46.4688C194.109 46.7552 193.38 47.0026 192.469 47.2109C191.583 47.3932 190.438 47.4583 189.031 47.4062C187.339 47.3542 185.919 47.0547 184.773 46.5078C183.628 45.9349 182.703 45.2448 182 44.4375C181.297 43.6042 180.789 42.7057 180.477 41.7422C180.164 40.7786 179.995 39.8802 179.969 39.0469C179.943 38.2135 180.19 37.3411 180.711 36.4297C181.232 35.5182 181.961 34.6849 182.898 33.9297C183.862 33.1745 185.021 32.5625 186.375 32.0938C187.729 31.599 189.214 31.3516 190.828 31.3516C191.766 31.3516 192.625 31.4688 193.406 31.7031C194.214 31.9115 194.943 32.1979 195.594 32.5625C196.271 32.9271 196.857 33.3438 197.352 33.8125C197.846 34.2552 198.263 34.7109 198.602 35.1797C198.94 35.6745 199.227 36.1953 199.461 36.7422C199.669 37.2109 199.839 37.7448 199.969 38.3438C200.099 38.9427 200.138 39.5547 200.086 40.1797C198.107 40.2318 196.505 40.2708 195.281 40.2969C194.083 40.3229 193.146 40.3359 192.469 40.3359H190.711H189.383C188.914 40.3359 188.302 40.349 187.547 40.375C186.792 40.401 185.867 40.4401 184.773 40.4922C184.904 41.5339 185.229 42.3411 185.75 42.9141C186.297 43.4609 186.87 43.8776 187.469 44.1641C188.146 44.4766 188.888 44.6589 189.695 44.7109ZM186.18 37.6797C187.013 37.7318 187.703 37.7708 188.25 37.7969C188.823 37.8229 189.292 37.849 189.656 37.875C190.047 37.901 190.359 37.9141 190.594 37.9141H191.57C192.221 37.9141 193.432 37.875 195.203 37.7969C195.125 36.651 194.878 35.7786 194.461 35.1797C194.07 34.5807 193.654 34.138 193.211 33.8516C192.69 33.5391 192.117 33.3568 191.492 33.3047C189.799 33.3307 188.536 33.6823 187.703 34.3594C186.896 35.0365 186.388 36.1432 186.18 37.6797ZM202.859 46.7031C203.042 45.8438 203.172 45.0885 203.25 44.4375C203.354 43.7604 203.432 43.2005 203.484 42.7578C203.536 42.237 203.562 41.7943 203.562 41.4297C203.536 40.987 203.51 40.4661 203.484 39.8672C203.484 39.2422 203.458 38.6302 203.406 38.0312C203.38 37.4062 203.341 36.8594 203.289 36.3906C203.237 35.8958 203.172 35.5443 203.094 35.3359C202.99 35.1276 202.846 34.9062 202.664 34.6719C202.299 34.2292 201.766 33.7995 201.062 33.3828C201.661 33.2526 202.169 33.1484 202.586 33.0703C203.029 32.9661 203.393 32.875 203.68 32.7969C203.992 32.6927 204.266 32.6016 204.5 32.5234C204.708 32.4453 204.956 32.3672 205.242 32.2891C205.477 32.237 205.763 32.1719 206.102 32.0938C206.44 32.0156 206.831 31.9245 207.273 31.8203L207.156 35.375C207.99 34.3854 208.836 33.6432 209.695 33.1484C210.555 32.6536 211.362 32.3021 212.117 32.0938C212.977 31.8333 213.823 31.7031 214.656 31.7031C215.698 31.7552 216.661 31.9245 217.547 32.2109C218.458 32.4974 219.24 32.8359 219.891 33.2266C220.568 33.5911 221.115 33.9818 221.531 34.3984C221.948 34.8151 222.195 35.1797 222.273 35.4922C222.586 36.5078 222.664 37.4453 222.508 38.3047C222.352 39.138 222.143 39.9583 221.883 40.7656C221.648 41.5469 221.44 42.3281 221.258 43.1094C221.102 43.8906 221.167 44.737 221.453 45.6484C221.557 45.8828 221.661 46.1172 221.766 46.3516C221.87 46.5599 222 46.7682 222.156 46.9766C222.312 47.1849 222.495 47.3542 222.703 47.4844C222.417 47.4583 222.13 47.4453 221.844 47.4453C221.557 47.4193 221.297 47.3932 221.062 47.3672C220.776 47.3411 220.516 47.3151 220.281 47.2891C220.021 47.263 219.669 47.25 219.227 47.25C218.471 47.25 217.299 47.2891 215.711 47.3672C215.945 46.8203 216.128 46.3646 216.258 46C216.414 45.6094 216.544 45.2969 216.648 45.0625C216.753 44.776 216.831 44.5547 216.883 44.3984C217.195 43.6432 217.378 42.7839 217.43 41.8203C217.508 40.8568 217.443 39.8802 217.234 38.8906C217.156 38.5521 217.026 38.1484 216.844 37.6797C216.661 37.2109 216.414 36.7552 216.102 36.3125C215.815 35.8698 215.464 35.4922 215.047 35.1797C214.656 34.8672 214.201 34.6849 213.68 34.6328C213.159 34.5807 212.573 34.7109 211.922 35.0234C211.297 35.3359 210.62 35.9089 209.891 36.7422C209.344 37.4453 208.914 38.3047 208.602 39.3203C208.315 40.1797 208.12 41.2604 208.016 42.5625C207.911 43.8385 208.068 45.3359 208.484 47.0547C208.12 47.0026 207.781 46.9766 207.469 46.9766C207.156 46.9505 206.896 46.9245 206.688 46.8984C206.427 46.8724 206.193 46.8464 205.984 46.8203C205.75 46.8203 205.49 46.8073 205.203 46.7812C204.943 46.7812 204.617 46.7812 204.227 46.7812C203.836 46.7552 203.38 46.7292 202.859 46.7031ZM224.617 26.3906C225.398 26.4688 226.049 26.5339 226.57 26.5859C227.117 26.638 227.56 26.6771 227.898 26.7031C228.289 26.7292 228.602 26.7422 228.836 26.7422C229.07 26.7682 229.383 26.7682 229.773 26.7422C230.112 26.7161 230.555 26.6901 231.102 26.6641C231.648 26.612 232.339 26.5339 233.172 26.4297C232.99 26.6901 232.846 26.9245 232.742 27.1328C232.638 27.3151 232.547 27.4844 232.469 27.6406L232.234 28.1094C232.182 28.2656 232.13 28.4219 232.078 28.5781C232.026 28.7083 231.974 28.8646 231.922 29.0469C231.896 29.2292 231.87 29.4245 231.844 29.6328H237.859L237.312 32.7969L231.805 32.4844C231.674 33.8125 231.583 34.8411 231.531 35.5703C231.479 36.2995 231.427 36.8333 231.375 37.1719L231.297 37.875C231.219 38.8646 231.141 39.9453 231.062 41.1172C230.984 42.263 230.958 43.3307 230.984 44.3203C231.01 45.3099 231.102 46.1432 231.258 46.8203C231.414 47.4714 231.688 47.7969 232.078 47.7969C232.469 47.7969 232.833 47.6927 233.172 47.4844C233.51 47.276 233.797 47.0286 234.031 46.7422C234.292 46.4557 234.487 46.1693 234.617 45.8828C234.747 45.5703 234.812 45.3359 234.812 45.1797C234.812 45.0234 234.773 44.8411 234.695 44.6328C234.565 44.2422 234.331 43.7474 233.992 43.1484C234.747 43.3307 235.411 43.513 235.984 43.6953C236.271 43.7995 236.531 43.9036 236.766 44.0078C237.026 44.112 237.326 44.2292 237.664 44.3594C237.951 44.4896 238.315 44.6458 238.758 44.8281C239.201 45.0104 239.721 45.2318 240.32 45.4922C239.747 45.5964 239.331 45.7656 239.07 46C238.914 46.1042 238.797 46.2214 238.719 46.3516C238.536 46.638 238.328 47.0286 238.094 47.5234C237.859 47.9922 237.508 48.4609 237.039 48.9297C236.57 49.3984 235.932 49.8151 235.125 50.1797C234.344 50.5443 233.289 50.7526 231.961 50.8047C230.581 50.8568 229.526 50.6224 228.797 50.1016C228.094 49.5807 227.573 48.9818 227.234 48.3047C226.922 47.6016 226.74 46.9115 226.688 46.2344C226.635 45.5573 226.596 45.1016 226.57 44.8672C226.544 44.6328 226.544 44.0469 226.57 43.1094C226.596 42.1719 226.635 41.1432 226.688 40.0234C226.74 38.8776 226.792 37.7839 226.844 36.7422C226.896 35.6745 226.922 34.8932 226.922 34.3984C226.922 34.138 226.935 33.8646 226.961 33.5781C226.961 33.3438 226.961 33.0964 226.961 32.8359C226.987 32.5495 227 32.276 227 32.0156L221.336 31.9766L221.102 29.75L226.805 29.9062C226.753 29.6198 226.688 29.3594 226.609 29.125C226.557 28.8646 226.505 28.6562 226.453 28.5C226.375 28.3177 226.297 28.1615 226.219 28.0312C226.115 27.901 225.997 27.7578 225.867 27.6016C225.737 27.4714 225.568 27.3021 225.359 27.0938C225.151 26.8854 224.904 26.651 224.617 26.3906ZM249.188 33.5C249.865 33.5 250.568 33.6302 251.297 33.8906C252.026 34.125 252.729 34.4375 253.406 34.8281C254.083 35.1927 254.695 35.5964 255.242 36.0391C255.815 36.4557 256.284 36.8594 256.648 37.25C257.299 37.9531 257.742 38.9036 257.977 40.1016C258.237 41.2734 258.289 42.4844 258.133 43.7344C257.977 44.9583 257.612 46.1172 257.039 47.2109C256.466 48.3047 255.672 49.112 254.656 49.6328C253.927 49.9974 253.211 50.2839 252.508 50.4922C251.805 50.7005 251.128 50.8568 250.477 50.9609C249.826 51.0651 249.214 51.1172 248.641 51.1172C248.068 51.1172 247.573 51.1042 247.156 51.0781C246.375 51.026 245.555 50.7526 244.695 50.2578C243.862 49.763 243.068 49.151 242.312 48.4219C241.583 47.6927 240.958 46.8984 240.438 46.0391C239.917 45.1536 239.604 44.3203 239.5 43.5391C239.344 42.4714 239.318 41.3516 239.422 40.1797C239.526 39.0078 239.904 37.9271 240.555 36.9375C241.232 35.9479 242.247 35.1276 243.602 34.4766C244.982 33.8255 246.844 33.5 249.188 33.5ZM247.898 48.6562C248.185 48.7083 248.576 48.6432 249.07 48.4609C249.565 48.2526 250.047 47.9271 250.516 47.4844C251.01 47.0417 251.44 46.4818 251.805 45.8047C252.195 45.1016 252.43 44.2552 252.508 43.2656C252.586 42.3021 252.586 41.4167 252.508 40.6094C252.456 39.8021 252.339 39.099 252.156 38.5C251.974 37.875 251.766 37.3672 251.531 36.9766C251.297 36.5859 251.049 36.3125 250.789 36.1562C250.346 35.9219 249.812 35.7396 249.188 35.6094C248.562 35.4531 248.029 35.4792 247.586 35.6875C247.378 35.7917 247.117 36.013 246.805 36.3516C246.492 36.6901 246.18 37.1198 245.867 37.6406C245.555 38.1354 245.268 38.7083 245.008 39.3594C244.773 40.0104 244.604 40.6875 244.5 41.3906C244.396 42.0938 244.37 42.849 244.422 43.6562C244.5 44.4635 244.669 45.2318 244.93 45.9609C245.19 46.6641 245.555 47.276 246.023 47.7969C246.518 48.2917 247.143 48.5781 247.898 48.6562ZM278.445 34.4375C278.367 33.9167 278.302 33.487 278.25 33.1484C278.198 32.7839 278.146 32.4974 278.094 32.2891C278.042 32.0286 278.003 31.8333 277.977 31.7031C277.924 31.5729 277.859 31.4297 277.781 31.2734C277.729 31.1432 277.638 30.987 277.508 30.8047C277.404 30.6224 277.273 30.4141 277.117 30.1797C277.456 30.2839 277.794 30.349 278.133 30.375C278.497 30.401 278.836 30.4271 279.148 30.4531C279.487 30.4792 279.839 30.4792 280.203 30.4531C280.568 30.4531 280.984 30.4401 281.453 30.4141C281.87 30.388 282.365 30.375 282.938 30.375C283.536 30.349 284.214 30.3099 284.969 30.2578C284.526 30.362 284.148 30.5443 283.836 30.8047C283.549 31.0391 283.302 31.2995 283.094 31.5859C282.859 31.8984 282.664 32.237 282.508 32.6016C282.378 32.9401 282.299 33.5911 282.273 34.5547C282.247 35.4922 282.247 36.612 282.273 37.9141C282.299 39.1901 282.326 40.5703 282.352 42.0547C282.404 43.5391 282.43 44.9583 282.43 46.3125C282.456 47.6667 282.456 48.9036 282.43 50.0234C282.404 51.1172 282.339 51.9245 282.234 52.4453C281.87 54.0859 281.193 55.4141 280.203 56.4297C279.214 57.4714 277.911 58.0312 276.297 58.1094C274.344 58.1875 272.794 58.0052 271.648 57.5625C270.529 57.1198 269.656 56.5729 269.031 55.9219C268.406 55.2969 267.938 54.6589 267.625 54.0078C267.312 53.3568 266.987 52.862 266.648 52.5234C266.336 52.237 266.023 51.9635 265.711 51.7031C265.424 51.4948 265.125 51.2865 264.812 51.0781C264.526 50.8698 264.24 50.7396 263.953 50.6875C264.708 50.7135 265.385 50.7266 265.984 50.7266C266.583 50.7266 267.091 50.7266 267.508 50.7266C267.977 50.7266 268.393 50.7135 268.758 50.6875H270.008H273.562C273.042 50.8438 272.651 51.013 272.391 51.1953C272.13 51.4036 271.948 51.612 271.844 51.8203C271.74 52.0547 271.688 52.2891 271.688 52.5234C271.792 53.1484 272.13 53.6042 272.703 53.8906C273.276 54.1771 274.057 54.3464 275.047 54.3984C276.01 54.4505 276.674 54.4245 277.039 54.3203C277.404 54.2422 277.69 54.0859 277.898 53.8516C278.315 53.2266 278.667 52.4193 278.953 51.4297C279.161 50.5964 279.305 49.5156 279.383 48.1875C279.487 46.8333 279.37 45.1797 279.031 43.2266C278.198 44.3724 277.234 45.2318 276.141 45.8047C275.047 46.3776 274.005 46.7943 273.016 47.0547C271.844 47.3411 270.659 47.4844 269.461 47.4844C266.31 47.3542 263.953 46.625 262.391 45.2969C260.828 43.9688 260.112 42.1849 260.242 39.9453C260.32 38.8255 260.659 37.7057 261.258 36.5859C261.883 35.4661 262.69 34.4635 263.68 33.5781C264.695 32.6927 265.854 31.9896 267.156 31.4688C268.458 30.9479 269.812 30.7266 271.219 30.8047C272.286 30.9089 273.289 31.1042 274.227 31.3906C275.034 31.651 275.828 32.0156 276.609 32.4844C277.417 32.9531 278.029 33.6042 278.445 34.4375ZM266.023 38.3438C265.867 39.3594 265.932 40.3099 266.219 41.1953C266.531 42.0807 266.961 42.849 267.508 43.5C268.055 44.125 268.667 44.6198 269.344 44.9844C270.021 45.3229 270.659 45.4792 271.258 45.4531C272.508 45.4271 273.589 44.8672 274.5 43.7734C275.411 42.6536 275.958 40.987 276.141 38.7734C276.219 37.6797 276.076 36.7422 275.711 35.9609C275.372 35.1536 274.943 34.5026 274.422 34.0078C273.901 33.513 273.354 33.1615 272.781 32.9531C272.208 32.7448 271.753 32.6536 271.414 32.6797C270.945 32.7318 270.424 32.875 269.852 33.1094C269.305 33.3177 268.771 33.6432 268.25 34.0859C267.729 34.5026 267.26 35.0625 266.844 35.7656C266.453 36.4688 266.18 37.3281 266.023 38.3438ZM284.93 32.2891C285.424 32.3151 285.867 32.3281 286.258 32.3281C286.674 32.3021 287.026 32.276 287.312 32.25C287.651 32.224 287.951 32.1979 288.211 32.1719C288.602 32.1198 289.005 32.0547 289.422 31.9766C289.786 31.9245 290.164 31.8594 290.555 31.7812C290.971 31.6771 291.375 31.5599 291.766 31.4297C291.609 31.8203 291.479 32.1589 291.375 32.4453C291.271 32.7318 291.193 32.9792 291.141 33.1875C291.062 33.4219 291.023 33.6172 291.023 33.7734C290.997 33.9557 290.984 34.1771 290.984 34.4375C290.958 34.8802 290.958 35.5964 290.984 36.5859C292.339 35.4141 293.471 34.5026 294.383 33.8516C295.32 33.2005 296.062 32.6927 296.609 32.3281C297.26 31.9115 297.768 31.638 298.133 31.5078C299.096 31.3516 299.943 31.5729 300.672 32.1719C300.984 32.4323 301.284 32.7839 301.57 33.2266C301.857 33.6432 302.104 34.2031 302.312 34.9062C302.521 35.6094 302.677 36.4557 302.781 37.4453C302.885 38.4089 302.898 39.5677 302.82 40.9219C302.273 40.974 301.779 41.026 301.336 41.0781C300.919 41.1302 300.568 41.1693 300.281 41.1953C299.943 41.2474 299.63 41.2734 299.344 41.2734L298.289 41.3906C297.924 41.4427 297.469 41.4948 296.922 41.5469C296.401 41.5729 295.763 41.625 295.008 41.7031C296.102 40.8177 296.805 40.0495 297.117 39.3984C297.456 38.7214 297.599 38.1615 297.547 37.7188C297.495 37.224 297.26 36.7943 296.844 36.4297C296.349 36.1432 295.815 36.0391 295.242 36.1172C294.747 36.1693 294.174 36.3906 293.523 36.7812C292.872 37.1719 292.182 37.901 291.453 38.9688C291.505 40.6354 291.557 42.0156 291.609 43.1094C291.688 44.2031 291.753 45.0885 291.805 45.7656C291.883 46.5469 291.948 47.1589 292 47.6016C292.078 47.9922 292.234 48.4089 292.469 48.8516C292.651 49.2161 292.911 49.6198 293.25 50.0625C293.589 50.5052 294.031 50.9479 294.578 51.3906C293.432 51.3385 292.495 51.3385 291.766 51.3906C291.323 51.4167 290.932 51.4427 290.594 51.4688C290.229 51.5208 289.839 51.5729 289.422 51.625C289.057 51.6771 288.628 51.7292 288.133 51.7812C287.664 51.8594 287.143 51.9375 286.57 52.0156C286.779 51.7292 286.948 51.3906 287.078 51C287.208 50.6354 287.312 50.2839 287.391 49.9453C287.495 49.5547 287.573 49.151 287.625 48.7344C287.651 48.3698 287.664 47.8229 287.664 47.0938C287.69 46.3646 287.677 45.5443 287.625 44.6328C287.599 43.6953 287.56 42.7318 287.508 41.7422C287.456 40.7266 287.391 39.776 287.312 38.8906C287.234 38.0052 287.143 37.237 287.039 36.5859C286.961 35.9089 286.87 35.4401 286.766 35.1797C286.635 34.8672 286.479 34.5547 286.297 34.2422C286.141 33.9557 285.945 33.6562 285.711 33.3438C285.477 33.0052 285.216 32.6536 284.93 32.2891ZM307.391 35.1797C307.521 35.0234 307.599 34.737 307.625 34.3203C307.677 33.8776 307.781 33.3828 307.938 32.8359C308.12 32.2891 308.419 31.7161 308.836 31.1172C309.253 30.5182 309.93 29.9583 310.867 29.4375C311.779 28.9167 312.664 28.6042 313.523 28.5C314.383 28.3958 315.203 28.4349 315.984 28.6172C316.766 28.7995 317.495 29.0859 318.172 29.4766C318.875 29.8672 319.513 30.2969 320.086 30.7656C320.477 31.0781 320.789 31.5339 321.023 32.1328C321.258 32.7057 321.44 33.3568 321.57 34.0859C321.701 34.8151 321.792 35.5833 321.844 36.3906C321.922 37.1719 321.974 37.9401 322 38.6953C322.026 39.4245 322.039 40.1016 322.039 40.7266C322.065 41.3255 322.117 41.8203 322.195 42.2109C322.299 42.7839 322.482 43.2786 322.742 43.6953C323.003 44.0859 323.289 44.4245 323.602 44.7109C323.914 44.9714 324.227 45.1797 324.539 45.3359C324.852 45.4922 325.125 45.6094 325.359 45.6875C325.516 45.7656 325.659 45.8177 325.789 45.8438C326.049 45.9479 326.232 45.9479 326.336 45.8438C326.18 46.2083 326.036 46.5208 325.906 46.7812C325.776 47.0417 325.672 47.263 325.594 47.4453C325.49 47.6536 325.398 47.8229 325.32 47.9531C325.242 48.1094 325.151 48.2526 325.047 48.3828C324.969 48.513 324.865 48.6562 324.734 48.8125C324.604 48.9688 324.474 49.138 324.344 49.3203C324.005 49.1901 323.68 49.0339 323.367 48.8516C323.081 48.6693 322.82 48.5 322.586 48.3438C322.299 48.1615 322.039 47.9792 321.805 47.7969C321.57 47.6146 321.349 47.4062 321.141 47.1719C320.958 46.9635 320.763 46.7422 320.555 46.5078C320.372 46.2734 320.216 46.013 320.086 45.7266C319.93 46.0651 319.552 46.5469 318.953 47.1719C318.38 47.7969 317.625 48.3698 316.688 48.8906C315.75 49.3854 314.656 49.737 313.406 49.9453C312.182 50.1536 310.828 50.0104 309.344 49.5156C308.693 49.3073 308.081 49.0078 307.508 48.6172C306.935 48.2005 306.44 47.7057 306.023 47.1328C305.633 46.5599 305.346 45.9089 305.164 45.1797C305.008 44.4245 305.021 43.5911 305.203 42.6797C305.385 41.7682 305.711 41 306.18 40.375C306.648 39.75 307.208 39.2422 307.859 38.8516C308.51 38.4609 309.24 38.1615 310.047 37.9531C310.854 37.7448 311.688 37.6016 312.547 37.5234C313.224 37.4974 313.901 37.5365 314.578 37.6406C315.151 37.7448 315.75 37.9401 316.375 38.2266C317 38.487 317.534 38.8906 317.977 39.4375C317.951 38.0573 317.898 36.9635 317.82 36.1562C317.768 35.3229 317.716 34.6849 317.664 34.2422C317.56 33.7214 317.469 33.3568 317.391 33.1484C317.26 32.9661 317.117 32.7578 316.961 32.5234C316.831 32.2891 316.661 32.0807 316.453 31.8984C316.245 31.6901 315.984 31.5208 315.672 31.3906C315.359 31.2604 314.995 31.2083 314.578 31.2344C314.135 31.2604 313.784 31.3776 313.523 31.5859C313.263 31.7943 313.055 32.0417 312.898 32.3281C312.768 32.5885 312.69 32.875 312.664 33.1875C312.638 33.5 312.651 33.7734 312.703 34.0078C312.755 34.1641 312.833 34.3333 312.938 34.5156C313.042 34.6719 313.185 34.8411 313.367 35.0234C313.549 35.2057 313.797 35.362 314.109 35.4922C313.51 35.5703 312.977 35.6354 312.508 35.6875C312.039 35.7135 311.635 35.7526 311.297 35.8047C310.906 35.8568 310.568 35.8958 310.281 35.9219C309.995 35.9479 309.656 36 309.266 36.0781C308.927 36.1302 308.51 36.1953 308.016 36.2734C307.521 36.3516 306.948 36.4557 306.297 36.5859C306.453 36.4036 306.596 36.2344 306.727 36.0781C306.857 35.8958 306.974 35.7396 307.078 35.6094C307.182 35.4531 307.286 35.3099 307.391 35.1797ZM313.25 39.8281C312.781 39.8542 312.312 39.9714 311.844 40.1797C311.375 40.362 310.958 40.6354 310.594 41C310.229 41.3385 309.917 41.7422 309.656 42.2109C309.422 42.6536 309.305 43.1484 309.305 43.6953C309.305 44.2422 309.435 44.724 309.695 45.1406C309.982 45.5312 310.346 45.8568 310.789 46.1172C311.258 46.3776 311.753 46.5339 312.273 46.5859C312.82 46.638 313.354 46.5859 313.875 46.4297C314.37 46.2474 314.839 45.9609 315.281 45.5703C315.724 45.1536 316.102 44.7109 316.414 44.2422C316.727 43.7474 316.948 43.2656 317.078 42.7969C317.208 42.3021 317.221 41.8984 317.117 41.5859C316.909 40.9089 316.44 40.4401 315.711 40.1797C314.982 39.8932 314.161 39.776 313.25 39.8281ZM325.75 32.4844C326.349 32.4323 326.857 32.3802 327.273 32.3281C327.716 32.276 328.081 32.224 328.367 32.1719C328.706 32.1198 328.992 32.0677 329.227 32.0156C329.461 31.9896 329.721 31.9375 330.008 31.8594C330.268 31.8073 330.555 31.7422 330.867 31.6641C331.206 31.5599 331.57 31.4427 331.961 31.3125L331.727 36.2734C332.299 35.362 332.964 34.6719 333.719 34.2031C334.474 33.7083 335.19 33.3438 335.867 33.1094C336.674 32.8229 337.482 32.6536 338.289 32.6016C339.122 32.6276 339.891 32.7578 340.594 32.9922C341.193 33.2005 341.792 33.526 342.391 33.9688C343.016 34.4115 343.497 35.0625 343.836 35.9219C344.721 35.0104 345.594 34.3073 346.453 33.8125C347.339 33.2917 348.12 32.901 348.797 32.6406C349.604 32.3542 350.359 32.1849 351.062 32.1328C352 32.1068 352.859 32.263 353.641 32.6016C354.448 32.9401 355.151 33.3698 355.75 33.8906C356.349 34.3854 356.831 34.9193 357.195 35.4922C357.56 36.0391 357.768 36.5208 357.82 36.9375C357.898 37.5104 357.859 38.2526 357.703 39.1641C357.547 40.0495 357.365 40.9609 357.156 41.8984C356.948 42.8099 356.753 43.6562 356.57 44.4375C356.414 45.1927 356.349 45.7266 356.375 46.0391C356.453 46.2995 356.635 46.612 356.922 46.9766C357.182 47.2891 357.56 47.6797 358.055 48.1484C358.576 48.5911 359.318 49.112 360.281 49.7109C359.448 49.6849 358.706 49.6589 358.055 49.6328C357.43 49.6068 356.896 49.5677 356.453 49.5156C355.932 49.4635 355.477 49.4245 355.086 49.3984C354.773 49.3984 354.396 49.3724 353.953 49.3203C353.589 49.2943 353.107 49.2552 352.508 49.2031C351.935 49.151 351.271 49.099 350.516 49.0469C350.802 48.9688 351.036 48.8255 351.219 48.6172C351.401 48.3828 351.557 48.1615 351.688 47.9531C351.818 47.6927 351.922 47.4062 352 47.0938C352.052 46.8333 352.104 46.4167 352.156 45.8438C352.208 45.2708 352.247 44.6198 352.273 43.8906C352.326 43.1615 352.352 42.3932 352.352 41.5859C352.378 40.7786 352.378 40.0104 352.352 39.2812C352.326 38.5521 352.273 37.888 352.195 37.2891C352.117 36.6901 352.013 36.2344 351.883 35.9219C351.779 35.6875 351.596 35.5052 351.336 35.375C351.076 35.2188 350.776 35.1276 350.438 35.1016C350.099 35.0495 349.76 35.0625 349.422 35.1406C349.083 35.1927 348.784 35.2969 348.523 35.4531C348.289 35.6354 347.977 35.8828 347.586 36.1953C347.247 36.4818 346.805 36.8724 346.258 37.3672C345.711 37.862 345.021 38.487 344.188 39.2422C344.109 40.8828 344.044 42.2109 343.992 43.2266C343.966 44.2161 343.94 44.9714 343.914 45.4922C343.888 46.1172 343.875 46.5469 343.875 46.7812C343.849 46.9896 343.862 47.1849 343.914 47.3672C343.966 47.7578 344.122 48.1224 344.383 48.4609C344.07 48.3828 343.732 48.3307 343.367 48.3047C343.029 48.2786 342.716 48.2526 342.43 48.2266C342.091 48.2005 341.753 48.1875 341.414 48.1875C341.128 48.1875 340.815 48.2005 340.477 48.2266C340.19 48.2526 339.839 48.2917 339.422 48.3438C339.005 48.3698 338.549 48.4089 338.055 48.4609C338.263 48.3307 338.432 48.1745 338.562 47.9922C338.693 47.8099 338.797 47.6406 338.875 47.4844C338.979 47.3021 339.057 47.1328 339.109 46.9766C339.135 46.8203 339.188 46.4427 339.266 45.8438C339.344 45.2188 339.396 44.4896 339.422 43.6562C339.448 42.8229 339.448 41.9505 339.422 41.0391C339.396 40.1016 339.305 39.2552 339.148 38.5C338.992 37.7188 338.745 37.0807 338.406 36.5859C338.094 36.0911 337.677 35.8698 337.156 35.9219C336.531 35.974 335.893 36.1302 335.242 36.3906C334.695 36.599 334.109 36.9115 333.484 37.3281C332.859 37.7448 332.273 38.3047 331.727 39.0078C331.622 40.9609 331.557 42.5104 331.531 43.6562C331.531 44.8021 331.544 45.6745 331.57 46.2734C331.596 46.9766 331.622 47.4583 331.648 47.7188C331.674 47.901 331.74 48.0833 331.844 48.2656C331.922 48.4219 332.013 48.6042 332.117 48.8125C332.247 49.0208 332.391 49.2161 332.547 49.3984L326.336 49.0859C326.544 48.9818 326.727 48.8516 326.883 48.6953C327.039 48.513 327.169 48.3307 327.273 48.1484C327.378 47.9401 327.482 47.7318 327.586 47.5234C327.664 47.3411 327.729 46.9115 327.781 46.2344C327.859 45.5573 327.924 44.763 327.977 43.8516C328.029 42.9141 328.068 41.9375 328.094 40.9219C328.146 39.8802 328.172 38.9167 328.172 38.0312C328.198 37.1198 328.211 36.3516 328.211 35.7266C328.211 35.0755 328.198 34.6849 328.172 34.5547C328.094 34.2943 327.951 34.0208 327.742 33.7344C327.56 33.526 327.312 33.3047 327 33.0703C326.688 32.8099 326.271 32.6146 325.75 32.4844Z" fill="white"/>
<defs>
<radialGradient id="paint0_radial_1_2" cx="0" cy="0" r="1" gradientUnits="userSpaceOnUse" gradientTransform="translate(37 37) rotate(90) scale(37)">
<stop offset="0.35" stop-color="#7774F6" stop-opacity="0.9"/>
<stop offset="1" stop-color="#464490"/>
</radialGradient>
</defs>
</svg>
